<!DOCTYPE svg PUBLIC "-//W3C//DTD SVG 1.1//EN" "http://www.w3.org/Graphics/SVG/1.1/DTD/svg11.dtd">
<!-- Uploaded to: SVG Repo, www.svgrepo.com, Transformed by: SVG Repo Mixer Tools -->
<svg width="800px" height="800px" viewBox="0 0 24 24" fill="none" xmlns="http://www.w3.org/2000/svg" transform="rotate(180)matrix(-1, 0, 0, 1, 0, 0)">
<g id="SVGRepo_bgCarrier" stroke-width="0"/>
<g id="SVGRepo_tracerCarrier" stroke-linecap="round" stroke-linejoin="round"/>
<g id="SVGRepo_iconCarrier">
<path d="M21 15L21 5C21 3.89543 20.1046 3 19 3L5 3C3.89543 3 3 3.89543 3 5L3 19C3 20.1046 3.89543 21 5 21L15 21M21 15V15.1716C21 15.702 20.7893 16.2107 20.4142 16.5858L16.5858 20.4142C16.2107 20.7893 15.702 21 15.1716 21H15M21 15L17 15C15.8954 15 15 15.8954 15 17L15 21M7 7L17 7M7 11L17 11M7 15L11 15" stroke="#e0e0e0" stroke-linecap="round" stroke-linejoin="round" stroke-width="2"/>
</g>
</svg>